<?xml version="1.0" encoding="UTF-8" standalone="no"?>
<svg
   width="1500"
   height="1500"
   version="1.1"
   id="svg2"
   sodipodi:docname="bancoPan-nome.svg"
   inkscape:version="1.3.2 (091e20e, 2023-11-25, custom)"
   xmlns:inkscape="http://www.inkscape.org/namespaces/inkscape"
   xmlns:sodipodi="http://sodipodi.sourceforge.net/DTD/sodipodi-0.dtd"
   xmlns="http://www.w3.org/2000/svg"
   xmlns:svg="http://www.w3.org/2000/svg">
  <defs
     id="defs2" />
  <sodipodi:namedview
     id="namedview2"
     pagecolor="#ffffff"
     bordercolor="#000000"
     borderopacity="0.25"
     inkscape:showpageshadow="2"
     inkscape:pageopacity="0.0"
     inkscape:pagecheckerboard="0"
     inkscape:deskcolor="#d1d1d1"
     showguides="true"
     inkscape:zoom="0.26348039"
     inkscape:cx="212.53953"
     inkscape:cy="313.11628"
     inkscape:window-width="2400"
     inkscape:window-height="1261"
     inkscape:window-x="-9"
     inkscape:window-y="-9"
     inkscape:window-maximized="1"
     inkscape:current-layer="g2">
    <sodipodi:guide
       position="780.96162,745.87555"
       orientation="0,-1"
       id="guide2"
       inkscape:locked="false" />
  </sodipodi:namedview>
  <g
     fill-rule="nonzero"
     fill="none"
     id="g2"
     style="fill:#000000;fill-opacity:1"
     transform="matrix(14.655383,0,0,14.655383,2.6837169,373.03665)">
    <path
       d="m 49.904,37.834 h -4.08 v -5.657 h 4.08 c 1.93,0.03 3.245,1.119 3.245,2.822 0,1.705 -1.316,2.835 -3.245,2.835 M 50.46,28 H 41 v 20 h 4.823 V 42.275 H 50.43 C 55.517,42.275 58,38.662 58,34.999 58,31.337 55.546,28 50.46,28 M 96.083,40.206 86.917,28 H 82 v 20 h 4.917 V 35.765 L 96.083,48 H 101 V 28 H 96.083 Z M 43.254,21.926 v -1.94 h 1.952 c 0.894,0 1.361,0.234 1.361,0.97 0,0.647 -0.454,0.97 -1.36,0.97 z m 0,-5.867 h 1.801 c 0.866,0 1.279,0.323 1.279,1 0,0.78 -0.303,1.088 -1.279,1.088 h -1.8 V 16.06 Z M 49,21.089 c 0,-1.074 -0.495,-1.942 -1.402,-2.427 0.206,-0.162 0.88,-0.882 0.88,-1.912 0,-1.603 -0.852,-2.75 -3.56,-2.75 H 41 v 10 h 4.468 C 48.024,24 49,22.72 49,21.088 Z M 68.448,17.882 73.552,24 H 76 V 14 h -2.448 v 6.103 L 68.448,14 H 66 v 10 h 2.448 z M 89,22.018 87.012,20.652 A 2.6,2.6 0 0 1 82.407,19 a 2.599,2.599 0 0 1 4.6,-1.656 l 1.989,-1.367 A 4.998,4.998 0 0 0 85.008,14 5.003,5.003 0 0 0 80,19 c 0,2.761 2.24,5 5.008,5 1.63,0 3.077,-0.777 3.992,-1.982 m 8,-5.616 a 2.598,2.598 0 0 1 0,5.194 2.597,2.597 0 0 1 0,-5.194 M 97,24 a 5,5 0 1 0 0,-10 5,5 0 0 0 0,10 m -39.462,-7.265 1.353,3.32 c -0.45,0.068 -0.909,0.106 -1.367,0.106 -0.458,0 -0.91,-0.037 -1.358,-0.105 l 1.372,-3.32 z m -2.232,5.402 a 10.97,10.97 0 0 0 4.207,0.046 c 0.075,-0.014 0.15,-0.032 0.225,-0.047 L 60.498,24 H 63 L 58.825,14 H 56.21 L 52,24 h 2.536 z M 68,40.405 c -0.93,0 -1.852,-0.073 -2.762,-0.211 l 2.791,-6.723 2.75,6.72 C 69.863,40.331 68.931,40.405 68,40.405 Z M 65.358,28 57,48 h 4.998 l 1.546,-3.726 a 22.13,22.13 0 0 0 8.45,0.092 c 0.152,-0.028 0.303,-0.064 0.454,-0.095 L 73.974,48 H 79 L 70.614,28 Z M 14.5,32.046 c -3.28,0 -5.946,-2.614 -5.946,-5.83 0,-3.216 2.666,-5.83 5.946,-5.83 3.28,0 5.946,2.614 5.946,5.83 0,3.216 -2.666,5.83 -5.946,5.83 M 14.5,12 C 6.504,12 0,18.377 0,26.216 V 48 h 8.554 v -8.797 l 0.673,0.259 c 1.683,0.644 3.455,0.97 5.273,0.97 7.996,0 14.5,-6.377 14.5,-14.216 C 29,18.377 22.496,12 14.5,12"
       fill="#FFF"
       id="path1"
       style="fill:#ffffff;fill-opacity:1" />
    <path
       fill="#00C5FF"
       d="M 0,8 H 8 V 0 H 0 Z"
       id="path2"
       style="fill:#0ab2f9;fill-opacity:1" />
  </g>
</svg>
