<?xml version="1.0" encoding="UTF-8" standalone="no"?>
<svg
   width="2500"
   height="2500"
   viewBox="0 0 2500 2500"
   fill="#00d8d8"
   aria-hidden="true"
   version="1.1"
   id="svg2"
   sodipodi:docname="dock-nome.svg"
   inkscape:version="1.3.2 (091e20e, 2023-11-25, custom)"
   xmlns:inkscape="http://www.inkscape.org/namespaces/inkscape"
   xmlns:sodipodi="http://sodipodi.sourceforge.net/DTD/sodipodi-0.dtd"
   xmlns="http://www.w3.org/2000/svg"
   xmlns:svg="http://www.w3.org/2000/svg"
   xmlns:rdf="http://www.w3.org/1999/02/22-rdf-syntax-ns#"
   xmlns:cc="http://creativecommons.org/ns#"
   xmlns:dc="http://purl.org/dc/elements/1.1/">
  <defs
     id="defs2" />
  <sodipodi:namedview
     id="namedview2"
     pagecolor="#ffffff"
     bordercolor="#000000"
     borderopacity="0.25"
     inkscape:showpageshadow="2"
     inkscape:pageopacity="0.0"
     inkscape:pagecheckerboard="0"
     inkscape:deskcolor="#d1d1d1"
     showguides="true"
     inkscape:zoom="0.27946316"
     inkscape:cx="944.66835"
     inkscape:cy="1425.9482"
     inkscape:window-width="2400"
     inkscape:window-height="1261"
     inkscape:window-x="-9"
     inkscape:window-y="-9"
     inkscape:window-maximized="1"
     inkscape:current-layer="svg2">
    <sodipodi:guide
       position="1252.4651,1275.3674"
       orientation="0,-1"
       id="guide2"
       inkscape:locked="false" />
  </sodipodi:namedview>
  <title
     id="title1">Dock</title>
  <path
     d="m 654.31433,1260.2562 h 85.26334 v -85.2634 H 654.31433 Z M 414.48578,850.39682 h -85.26335 v 85.18072 h 85.26335 z m -85.01544,734.53808 h 85.26335 v -85.2633 H 329.47034 Z M 4.6263462,1260.2562 H 89.890065 v -85.2634 H 4.6263462 Z M 552.2631,1025.5546 v -73.189 h 85.26336 v 85.1805 h -73.27202 c -0.98428,0 -1.95938,0.1947 -2.86837,0.5748 -0.90716,0.3783 -1.73167,0.9346 -2.42398,1.6343 -0.6923,0.6997 -1.23953,1.5297 -1.60863,2.4423 -0.36912,0.9127 -0.55275,1.8897 -0.54173,2.874 v 115.7797 h -76.99429 c -5.9516,0 -11.66079,2.3579 -15.8752,6.5594 -4.21625,4.1997 -6.59616,9.9016 -6.61819,15.8513 v 68.7234 c 0,5.9443 2.36154,11.6462 6.5631,15.8477 4.20339,4.2034 9.90341,6.565 15.84766,6.565 h 77.07692 v 115.7797 c 0,1.974 0.78412,3.8673 2.17975,5.263 1.39562,1.3955 3.28889,2.1797 5.26296,2.1797 h 73.27202 v 85.2633 H 552.2631 v -73.272 c -0.022,-1.9814 -0.82451,-3.8747 -2.23299,-5.2684 -1.40848,-1.3938 -3.31094,-2.1742 -5.29235,-2.1742 H 428.95802 v -76.9117 c 0,-5.9425 -2.36154,-11.6444 -6.56493,-15.8458 -4.20157,-4.2035 -9.90341,-6.565 -15.84766,-6.565 h -68.72155 c -2.95101,0 -5.87264,0.5821 -8.59594,1.7133 -2.72513,1.1312 -5.19869,2.7895 -7.28111,4.881 -2.08242,2.0898 -3.73145,4.5688 -4.85346,7.2977 -1.12017,2.7287 -1.69311,5.6522 -1.6821,8.6014 v 76.9117 H 199.63154 c -0.98428,0 -1.95755,0.1946 -2.86653,0.5747 -0.909,0.3783 -1.73352,0.9347 -2.42581,1.6343 -0.69231,0.6997 -1.23771,1.5297 -1.60681,2.4424 -0.36911,0.9126 -0.55458,1.8896 -0.54356,2.8739 v 73.1893 h -85.26316 v -85.2633 h 73.27183 c 1.97407,0 3.86771,-0.7842 5.26351,-2.1797 1.39599,-1.3957 2.17956,-3.2889 2.17956,-5.263 v -115.7797 h 76.99208 c 5.94425,0 11.64611,-2.3616 15.84767,-6.565 4.20339,-4.2015 6.56494,-9.9034 6.56494,-15.8458 v -68.7234 c 0,-5.9442 -2.36155,-11.6461 -6.56494,-15.8477 -4.20156,-4.2033 -9.90342,-6.5649 -15.84767,-6.5649 h -76.99208 v -115.7797 c 1.8e-4,-1.9814 -0.781,-3.8821 -2.17442,-5.2924 -1.39359,-1.4085 -3.28706,-2.211 -5.26865,-2.233 h -73.27183 v -85.18065 h 85.26316 v 73.18935 c 0,1.9739 0.78412,3.8672 2.17975,5.263 1.39561,1.3958 3.28889,2.1799 5.26296,2.1799 h 115.77973 v 76.9941 c 0,2.9418 0.58029,5.8561 1.70597,8.5758 1.12568,2.7196 2.77839,5.1894 4.85897,7.27 2.08058,2.0825 4.55047,3.7333 7.27009,4.859 2.71963,1.1257 5.63391,1.7059 8.57758,1.7059 h 68.72155 c 5.94425,0 11.64609,-2.3615 15.84766,-6.5649 4.20339,-4.2015 6.56493,-9.9034 6.56493,-15.8458 v -76.9941 h 115.77974 c 0.98428,0.011 1.96122,-0.1735 2.87388,-0.5426 0.91267,-0.3691 1.74269,-0.9158 2.44234,-1.6079 0.69965,-0.6923 1.25606,-1.5165 1.63435,-2.4249 0.38012,-0.9085 0.57477,-1.8832 0.57477,-2.8675"
     fill="#00d8d8"
     id="path1"
     style="stroke-width:18.3635" />
  <path
     class="text"
     d="m 952.69474,1440.2108 h 216.09386 c 123.0572,0 215.0195,-95.6847 215.0195,-222.8755 0,-127.1926 -92.2929,-222.21426 -215.0195,-222.21426 H 952.69474 Z m 59.54356,-54.0034 v -337.0831 h 153.1604 c 90.2252,0 158.618,72.5264 158.618,168.211 0,95.6828 -68.3928,169.1201 -158.618,169.1201 z m 587.9941,60.8676 c 35.155,0.6721 69.715,-9.1358 99.2747,-28.1787 29.5615,-19.0411 52.782,-46.4522 66.7052,-78.7407 13.9214,-32.2884 17.9154,-67.9906 11.4716,-102.558 -6.4437,-34.5674 -23.035,-66.4317 -47.6567,-91.5345 -24.6217,-25.1029 -56.1592,-42.3057 -90.5962,-49.4161 -34.4351,-7.1121 -70.2071,-3.8086 -102.76,9.4866 -32.5511,13.2951 -60.4066,35.9832 -80.0151,65.1682 -19.6103,29.1869 -30.0867,63.5505 -30.0922,98.7128 -0.4517,23.0902 3.7076,46.039 12.2337,67.5022 8.5262,21.4632 21.2466,41.011 37.4174,57.4978 16.1727,16.4886 35.4708,29.5854 56.7652,38.5228 21.2942,8.9393 44.1567,13.5413 67.2524,13.5376 z m 0,-54.0032 c -66.1598,0 -119.0043,-54.0033 -119.0043,-123.0572 0,-69.0539 52.6792,-123.0572 119.0043,-123.0572 66.3251,0 118.9217,54.0033 118.9217,123.0572 0,69.0539 -52.5966,123.0572 -118.9217,123.0572 z m 603.7114,47.139 h 54.7414 v -162.5056 c 0,-1.8639 0.7346,-3.6525 2.0568,-4.9692 1.3221,-1.3185 3.1034,-2.0603 4.9764,-2.0603 h 31.8423 c 1.0834,-0.01 2.1485,0.2331 3.1218,0.7051 0.9732,0.4738 1.8363,1.1661 2.4974,2.0236 l 127.7729,166.8064 h 60.1954 l -138.846,-177.8042 125.0367,-162.6708 h -58.7998 l -115.7815,154.4825 c -0.6611,0.865 -1.5059,1.5665 -2.4792,2.0531 -0.9732,0.4866 -2.0382,0.7474 -3.1401,0.7602 h -31.8422 c -0.9181,0 -1.8364,-0.1818 -2.6811,-0.5362 -0.863,-0.3526 -1.6343,-0.8704 -2.2771,-1.5242 -0.661,-0.6519 -1.1752,-1.4268 -1.5241,-2.2789 -0.3673,-0.8538 -0.5325,-1.7684 -0.5325,-2.6903 V 995.12104 h -54.7598 z M 1869.582,1270.0146 c 0,-69.0539 51.2708,-123.0572 116.2775,-123.0572 25.1946,-0.1965 49.7465,7.9441 69.8361,23.1563 20.0896,15.2123 34.5968,36.6425 41.226,60.9501 h 54.0069 c -16.5455,-79.3098 -81.295,-138.1097 -164.7386,-138.1097 -95.7653,0 -170.938,77.9033 -170.938,177.0605 0,99.1571 75.1727,177.0604 170.938,177.0604 83.4436,0 148.3585,-58.7998 164.7386,-138.1079 h -54.0069 c -6.6292,24.2527 -21.0629,45.6405 -41.079,60.8473 -20.0346,15.2068 -44.5131,23.3823 -69.6527,23.2574 -65.0065,0 -116.2773,-54.0033 -116.2773,-123.0572"
     fill="#00d8d8"
     id="path2"
     style="stroke-width:18.3635" />
  <metadata
     id="metadata2">
    <rdf:RDF>
      <cc:Work
         rdf:about="">
        <dc:title>Dock</dc:title>
      </cc:Work>
    </rdf:RDF>
  </metadata>
</svg>
