<?xml version="1.0" encoding="UTF-8" standalone="no"?>
<svg
   width="2500"
   height="2500"
   viewBox="0 0 2500 2500"
   fill="#00d8d8"
   aria-hidden="true"
   version="1.1"
   id="svg2"
   sodipodi:docname="dock-logo.svg"
   inkscape:version="1.3.2 (091e20e, 2023-11-25, custom)"
   xmlns:inkscape="http://www.inkscape.org/namespaces/inkscape"
   xmlns:sodipodi="http://sodipodi.sourceforge.net/DTD/sodipodi-0.dtd"
   xmlns="http://www.w3.org/2000/svg"
   xmlns:svg="http://www.w3.org/2000/svg"
   xmlns:rdf="http://www.w3.org/1999/02/22-rdf-syntax-ns#"
   xmlns:cc="http://creativecommons.org/ns#"
   xmlns:dc="http://purl.org/dc/elements/1.1/">
  <defs
     id="defs2" />
  <sodipodi:namedview
     id="namedview2"
     pagecolor="#ffffff"
     bordercolor="#000000"
     borderopacity="0.25"
     inkscape:showpageshadow="2"
     inkscape:pageopacity="0.0"
     inkscape:pagecheckerboard="0"
     inkscape:deskcolor="#d1d1d1"
     showguides="true"
     inkscape:zoom="0.27946316"
     inkscape:cx="526.00851"
     inkscape:cy="1068.1193"
     inkscape:window-width="2400"
     inkscape:window-height="1261"
     inkscape:window-x="-9"
     inkscape:window-y="-9"
     inkscape:window-maximized="1"
     inkscape:current-layer="svg2">
    <sodipodi:guide
       position="1252.4651,1275.3674"
       orientation="0,-1"
       id="guide2"
       inkscape:locked="false" />
  </sodipodi:namedview>
  <title
     id="title1">Dock</title>
  <path
     d="m 2203.2827,1396.5336 h 288.5459 V 1107.9877 H 2203.2827 Z M 1391.6614,9.4988605 H 1103.1155 V 297.76512 h 288.5459 z M 1103.9545,2495.3025 h 288.5459 V 2206.7567 H 1103.9545 Z M 4.6263462,1396.5336 H 293.17348 V 1107.9877 H 4.6263462 Z M 1857.9236,602.26297 V 354.57883 h 288.546 v 288.26554 h -247.9652 c -3.331,0 -6.6308,0.6588 -9.7071,1.94517 -3.0699,1.2803 -5.8601,3.16286 -8.2031,5.53081 -2.3429,2.36782 -4.1949,5.17672 -5.4439,8.26518 -1.2491,3.08859 -1.8705,6.39503 -1.8333,9.72602 v 391.81855 h -260.562 c -20.1411,0 -39.4621,7.9794 -53.7243,22.1981 -14.2685,14.2126 -22.3225,33.5087 -22.3971,53.6435 v 232.5719 c 0,20.1165 7.9918,39.4128 22.2106,53.6313 14.225,14.2251 33.5148,22.2171 53.6313,22.2171 h 260.8415 v 391.8186 c 0,6.6804 2.6537,13.0875 7.3767,17.8108 4.723,4.7226 11.1301,7.3766 17.8107,7.3766 h 247.9652 v 288.5456 h -288.546 v -247.965 c -0.074,-6.7054 -2.7902,-13.1127 -7.5568,-17.8292 -4.7664,-4.7168 -11.2049,-7.3578 -17.9102,-7.3578 H 1440.638 v -260.2827 c 0,-20.1102 -7.992,-39.4066 -22.2168,-53.6249 -14.2189,-14.2252 -33.515,-22.217 -53.6312,-22.217 h -232.5656 c -9.9868,0 -19.8742,1.9699 -29.0903,5.7981 -9.2222,3.8282 -17.5933,9.4401 -24.6404,16.518 -7.0473,7.0723 -12.6279,15.4618 -16.4251,24.6968 -3.7907,9.2344 -5.7297,19.1281 -5.6925,29.1086 v 260.2827 H 664.5576 c -3.33098,0 -6.6247,0.6583 -9.70086,1.9447 -3.07621,1.2801 -5.86653,3.1633 -8.20934,5.5308 -2.34292,2.3679 -4.18864,5.1767 -5.43773,8.2655 -1.24914,3.0883 -1.87679,6.3947 -1.8395,9.7258 v 247.6852 H 350.82492 v -288.5457 h 247.96451 c 6.6806,0 13.08902,-2.654 17.81262,-7.3765 4.72428,-4.7233 7.37602,-11.1303 7.37602,-17.8111 v -391.8184 h 260.55448 c 20.11638,0 39.41245,-7.9919 53.63125,-22.2171 14.225,-14.2187 22.2169,-33.5148 22.2169,-53.6249 v -232.5717 c 0,-20.1164 -7.9919,-39.4125 -22.2169,-53.6315 -14.2188,-14.2247 -33.51487,-22.2166 -53.63125,-22.2166 H 623.97807 V 668.59107 c 6.1e-4,-6.70532 -2.64305,-13.13765 -7.35861,-17.91039 -4.71615,-4.76652 -11.12398,-7.48236 -17.83003,-7.55679 H 350.82492 V 354.8579 h 288.54525 v 247.68534 c 0,6.68002 2.65359,13.08735 7.37666,17.81095 4.72297,4.72363 11.13016,7.37702 17.81077,7.37702 h 391.8185 v 260.56137 c 0,9.95552 1.9638,19.81812 5.7733,29.02207 3.8096,9.2035 9.4026,17.56175 16.4437,24.60283 7.0409,7.04763 15.3995,12.63423 24.6032,16.44378 9.2038,3.80956 19.0661,5.77308 29.0281,5.77308 H 1364.79 c 20.1162,0 39.4123,-7.99172 53.6312,-22.21686 14.2248,-14.21862 22.2168,-33.51482 22.2168,-53.6249 V 627.73121 h 391.8186 c 3.331,0.0378 6.6372,-0.5871 9.7258,-1.83618 3.0885,-1.24908 5.8975,-3.0992 8.2652,-5.4414 2.3677,-2.34293 4.2507,-5.13214 5.5308,-8.20634 1.2866,-3.0745 1.9452,-6.37306 1.9452,-9.70405"
     fill="#00d8d8"
     id="path1"
     style="stroke-width:62.1453" />
  <metadata
     id="metadata2">
    <rdf:RDF>
      <cc:Work
         rdf:about="">
        <dc:title>Dock</dc:title>
      </cc:Work>
    </rdf:RDF>
  </metadata>
</svg>
