<?xml version="1.0" encoding="UTF-8" standalone="no"?>
<svg
   width="2500"
   height="2500"
   viewBox="0 0 2500 2500"
   fill="none"
   version="1.1"
   id="svg12"
   sodipodi:docname="logo-artta-white.svg"
   inkscape:version="1.3.2 (091e20e, 2023-11-25, custom)"
   xmlns:inkscape="http://www.inkscape.org/namespaces/inkscape"
   xmlns:sodipodi="http://sodipodi.sourceforge.net/DTD/sodipodi-0.dtd"
   xmlns="http://www.w3.org/2000/svg"
   xmlns:svg="http://www.w3.org/2000/svg">
  <defs
     id="defs12" />
  <sodipodi:namedview
     id="namedview12"
     pagecolor="#ffffff"
     bordercolor="#000000"
     borderopacity="0.25"
     inkscape:showpageshadow="2"
     inkscape:pageopacity="0.0"
     inkscape:pagecheckerboard="0"
     inkscape:deskcolor="#d1d1d1"
     showguides="true"
     inkscape:zoom="0.26092233"
     inkscape:cx="666.86511"
     inkscape:cy="1013.7116"
     inkscape:window-width="2400"
     inkscape:window-height="1261"
     inkscape:window-x="-9"
     inkscape:window-y="-9"
     inkscape:window-maximized="1"
     inkscape:current-layer="svg12">
    <sodipodi:guide
       position="1252.0329,1250.6772"
       orientation="0,-1"
       id="guide12"
       inkscape:locked="false" />
  </sodipodi:namedview>
  <path
     d="m 253.80815,1533.2336 65.9989,-176.7154 h 59.00763 l -67.01845,176.7154 z"
     fill="#ffffff"
     id="path1"
     style="fill:#ffffff;stroke-width:26.9725" />
  <path
     d="m 83.754665,1435.3722 157.068945,-104.7718 46.17145,33.2543 -157.90051,104.1703 z"
     fill="#ffffff"
     id="path2"
     style="fill:#ffffff;stroke-width:26.9725" />
  <path
     d="m 0.83541187,1258.5327 188.79718813,6.4221 16.1511,48.2079 -189.112222,-7.3985 z"
     fill="#ffffff"
     id="path3"
     style="fill:#ffffff;stroke-width:26.9725" />
  <path
     d="M 34.546122,1066.4594 184.00345,1181.7799 170.22052,1226.1037 21.064751,1109.8066 Z"
     fill="#ffffff"
     id="path4"
     style="fill:#ffffff;stroke-width:26.9725" />
  <path
     d="m 172.12208,928.96332 53.92602,180.74348 -30.37907,22.9077 -53.12278,-181.37544 z"
     fill="#ffffff"
     id="path5"
     style="fill:#ffffff;stroke-width:26.9725" />
  <path
     d="m 363.75326,895.14229 -62.28209,178.04921 -29.64812,0.6163 63.30165,-178.06348 z"
     fill="#ffffff"
     id="path6"
     style="fill:#ffffff;stroke-width:26.9725" />
  <path
     d="M 539.43294,976.88582 384.67849,1085.0111 367.17607,1072.9701 522.78015,965.41821 Z"
     fill="#ffffff"
     id="path7"
     style="fill:#ffffff;stroke-width:26.9725" />
  <path
     d="m 928.55372,1037.5906 h 191.82808 c 24.1619,0 45.8289,3.5406 65.009,10.6363 19.1801,7.0953 35.52,17.2586 49.0143,30.5037 13.497,13.2451 23.9192,28.9695 31.2557,47.1759 7.3365,18.2037 11.0128,38.4303 11.0128,60.6475 0,24.5989 -4.1483,45.8721 -12.4343,63.8465 -8.2967,17.9772 -19.0641,32.9846 -32.3318,45.0386 -13.2651,12.0567 -27.8248,21.2867 -43.6873,27.6657 -15.8652,6.3789 -31.6144,10.5219 -47.2504,12.4154 l 142.0936,198.617 h -66.7892 l -142.0936,-198.617 h -85.95842 v 198.617 h -59.68195 v -496.5466 z m 188.28118,245.4223 c 32.2024,0 56.955,-8.9737 74.2417,-26.9509 17.2866,-17.9609 25.9286,-41.1384 25.9286,-69.508 0,-28.3669 -8.642,-52.135 -25.9286,-69.8667 -17.3002,-17.7306 -42.0393,-26.6038 -74.2417,-26.6038 H 988.25185 v 192.9294 z"
     fill="#ffffff"
     id="path8"
     style="fill:#ffffff;stroke-width:26.9725" />
  <path
     d="m 1476.5098,1090.0835 h -160.5562 v -52.4929 h 380.0931 v 52.4929 h -160.5562 v 444.0402 h -58.9672 v -444.0402 z"
     fill="#ffffff"
     id="path9"
     style="fill:#ffffff;stroke-width:26.9725" />
  <path
     d="m 1897.4284,1090.0835 h -160.5589 v -52.4929 h 380.0931 v 52.4929 h -160.5562 v 444.0402 h -58.9645 v -444.0402 z"
     fill="#ffffff"
     id="path10"
     style="fill:#ffffff;stroke-width:26.9725" />
  <path
     d="m 2250.568,1037.5906 h 66.7892 l 188.2677,496.5331 h -59.6685 l -46.1741,-124.8393 h -231.6098 l -46.1714,124.8393 h -59.6685 l 188.265,-496.5331 z m 128.5992,319.904 -93.063,-253.2341 h -3.5469 l -93.0792,253.2341 z"
     fill="#ffffff"
     id="path11"
     style="fill:#ffffff;stroke-width:26.9725" />
  <path
     d="m 688.23996,1037.5906 h -9.95014 l -23.09921,61.8678 94.82705,258.0362 H 558.80995 l -19.36892,51.7898 h 231.20786 l 46.18763,124.8124 h 59.64149 L 688.22647,1037.5906 Z"
     fill="#ffffff"
     id="path12"
     style="fill:#ffffff;stroke-width:26.9725" />
</svg>
