<?xml version="1.0" encoding="UTF-8" standalone="no"?>
<svg
   width="1500"
   height="1500"
   viewBox="0 0 1500 1500"
   fill="none"
   version="1.1"
   id="svg7"
   sodipodi:docname="Almah-nome.svg"
   inkscape:version="1.3.2 (091e20e, 2023-11-25, custom)"
   xmlns:inkscape="http://www.inkscape.org/namespaces/inkscape"
   xmlns:sodipodi="http://sodipodi.sourceforge.net/DTD/sodipodi-0.dtd"
   xmlns="http://www.w3.org/2000/svg"
   xmlns:svg="http://www.w3.org/2000/svg">
  <defs
     id="defs7" />
  <sodipodi:namedview
     id="namedview7"
     pagecolor="#ffffff"
     bordercolor="#000000"
     borderopacity="0.25"
     inkscape:showpageshadow="2"
     inkscape:pageopacity="0.0"
     inkscape:pagecheckerboard="0"
     inkscape:deskcolor="#d1d1d1"
     inkscape:zoom="0.49556452"
     inkscape:cx="-247.19284"
     inkscape:cy="644.71928"
     inkscape:window-width="2400"
     inkscape:window-height="1261"
     inkscape:window-x="-9"
     inkscape:window-y="-9"
     inkscape:window-maximized="1"
     inkscape:current-layer="svg7" />
  <path
     d="M 562.89002,890.62418 H 512.46063 V 570.65105 c 0,-2.73646 2.14983,-4.88656 4.8859,-4.88656 h 40.65662 c 2.73704,0 4.88687,2.1501 4.88687,4.88656 z"
     fill="white"
     id="path1"
     style="fill:#ffffff;stroke-width:9.7058" />
  <path
     d="m 879.14865,663.68512 c 31.07894,0 57.85724,11.14129 79.94473,33.22877 22.08554,22.08749 33.2278,48.86579 33.2278,79.94473 v 108.67681 c 0,2.73704 -2.3488,5.08196 -5.07613,5.08196 h -40.27033 c -2.73607,0 -5.08196,-2.34492 -5.08196,-5.08196 V 780.37601 c 0,-19.54554 -7.62294,-38.70091 -22.28257,-51.40677 -11.53244,-9.77277 -25.01961,-14.85473 -40.65663,-14.85473 -15.63701,0 -29.31928,4.88687 -40.65565,14.85473 -11.33735,9.96882 -22.28355,31.86123 -22.28355,51.40677 v 105.15942 c 0,2.73704 -2.34492,5.08196 -5.08195,5.08196 h -40.26548 c -2.73607,0 -5.08196,-2.34492 -5.08196,-5.08196 V 780.37601 c 0,-19.54554 -7.62294,-38.70091 -22.28258,-51.40677 -11.53243,-9.77277 -25.01961,-14.85473 -40.65662,-14.85473 -15.63701,0 -29.31928,4.88687 -40.65662,14.85473 -14.85473,12.70586 -22.28258,31.86123 -22.28258,51.40677 v 105.15942 c 0,2.73704 -2.34492,5.08196 -5.08195,5.08196 h -40.26548 c -2.73607,0 -5.08196,-2.34492 -5.08196,-5.08196 V 668.96216 c 0,-2.73606 2.34589,-5.08195 5.08196,-5.08195 h 40.26548 c 2.73703,0 5.08195,2.34589 5.08195,5.08195 v 5.08196 c 0,3.90949 4.10459,6.45047 7.42785,4.49572 17.00553,-9.77276 35.76975,-14.65963 55.90249,-14.65963 20.13274,0 33.61992,3.7144 49.06088,11.14128 13.68227,6.64653 25.41075,15.44193 35.37958,26.38813 2.14984,2.34492 5.66819,2.34492 7.62294,0 9.77277,-10.9462 21.3052,-19.7416 34.79238,-26.38813 15.44095,-7.42688 31.86025,-11.14128 49.6471,-11.14128 z"
     fill="white"
     id="path2"
     style="fill:#ffffff;stroke-width:9.7058" />
  <path
     d="m 1197.1717,663.68512 h 45.7338 c 1.3685,0 2.3488,0.97737 2.3488,2.34589 v 222.24146 c 0,1.36754 -0.9803,2.34492 -2.3488,2.34492 h -21.6925 c -0.592,0 -1.1744,-0.19509 -1.5626,-0.58623 -11.1423,-11.14129 -28.1468,-14.85473 -42.8123,-8.60031 -13.8793,6.05933 -28.9233,9.18654 -44.7631,9.18654 -31.4663,0 -58.2446,-11.14129 -80.5291,-33.22878 -19.9357,-19.93668 -30.8838,-43.58777 -32.8347,-70.9523 -2.5429,-35.96581 12.1226,-71.93065 39.4832,-95.58175 20.7219,-17.9829 45.3455,-27.16944 73.8806,-27.16944 28.5447,0 41.2496,5.66819 59.2344,17.00553 1.5627,0.97737 3.5135,0 3.5135,-1.95475 v -12.70489 c 0,-1.36852 0.9803,-2.34589 2.3488,-2.34589 z m -109.8502,158.1298 c 12.307,12.31374 27.1665,18.37308 44.5593,18.37308 17.4025,0 32.4465,-6.05934 44.5691,-18.37308 12.3166,-12.31472 18.373,-27.16945 18.373,-44.56612 0,-17.39571 -6.0564,-32.44649 -18.373,-44.56515 -12.3167,-12.31472 -27.1666,-18.37405 -44.5691,-18.37405 -17.3928,0 -32.4465,6.05933 -44.5593,18.37405 -12.3167,12.31375 -18.3731,27.16944 -18.3731,44.56515 0,17.39667 6.0564,32.44746 18.3731,44.56612 z"
     fill="white"
     id="path3"
     style="fill:#ffffff;stroke-width:9.7058" />
  <path
     d="m 437.79391,663.68512 h 45.73858 c 1.36852,0 2.34589,0.97737 2.34589,2.34589 v 222.24146 c 0,1.36754 -0.97737,2.34492 -2.34589,2.34492 h -21.69634 c -0.58623,0 -1.17246,-0.19509 -1.56361,-0.58623 -11.14128,-11.14129 -28.14681,-14.85473 -42.80645,-8.60031 -13.87833,6.05933 -28.92911,9.18654 -44.76121,9.18654 -31.47009,0 -58.24839,-11.14129 -80.53096,-33.22878 -19.93668,-19.93668 -30.88288,-43.58777 -32.83763,-70.9523 -2.54098,-35.96581 12.11866,-71.93065 39.48319,-95.58175 20.71897,-17.9829 45.34744,-27.16944 73.8854,-27.16944 28.53699,0 41.24285,5.66819 59.22576,17.00553 1.5636,0.97737 3.51738,0 3.51738,-1.95475 v -12.70489 c 0,-1.36852 0.97737,-2.34589 2.34589,-2.34589 z m -109.85024,158.1298 c 12.31375,12.31374 27.16945,18.37308 44.56612,18.37308 17.39571,0 32.44649,-6.05934 44.56515,-18.37308 12.31472,-12.31472 18.37308,-27.16945 18.37308,-44.56612 0,-17.39571 -6.05836,-32.44649 -18.37308,-44.56515 -12.31375,-12.11866 -27.16944,-18.37405 -44.56515,-18.37405 -17.39667,0 -32.44746,6.05933 -44.56612,18.37405 -12.31472,12.31375 -18.37308,27.16944 -18.37308,44.56515 0,17.39667 6.05836,32.44746 18.37308,44.56612 z"
     fill="white"
     id="path4"
     style="fill:#ffffff;stroke-width:9.7058" />
  <path
     d="m 1385.0081,663.68803 c 31.078,0 57.8563,11.14129 79.9467,33.22878 22.0807,22.08748 33.2229,48.86578 33.2229,79.94473 v 108.48172 c 0,2.73606 -2.3391,5.08195 -5.0761,5.08195 h -40.0753 c -2.737,0 -5.0761,-2.34589 -5.0761,-5.08195 V 780.18383 c 0,-19.54651 -7.6288,-38.70188 -22.2845,-51.40677 -11.5305,-9.77277 -25.0216,-14.85472 -40.6576,-14.85472 -15.6361,0 -29.3212,4.8859 -40.6576,14.85472 -14.8499,12.70489 -22.2845,31.86026 -22.2845,51.40677 v 105.15943 c 0,2.73606 -2.3391,5.08195 -5.0762,5.08195 h -40.0752 c -2.737,0 -5.0761,-2.34589 -5.0761,-5.08195 v -314.6958 c 0,-2.73644 2.3391,-5.08202 5.0761,-5.08202 h 40.0752 c 2.7371,0 5.0762,2.34558 5.0762,5.08202 v 103.0094 c 0,3.90852 4.1055,6.45047 7.4346,4.49572 17.0046,-9.77374 35.5718,-14.65964 55.8957,-14.65964 z"
     fill="white"
     id="path5"
     style="fill:#ffffff;stroke-width:9.7058" />
  <path
     d="M 139.90739,706.30037 65.045012,791.7182 12.465463,745.58848 C 0.73767358,735.42457 -0.43508792,717.63772 9.9244652,705.9102 l 34.7925258,-39.67925 40.070005,-45.73868 52.579424,46.12982 c 11.72751,10.16392 12.90094,27.95076 2.54097,39.67828 z"
     fill="white"
     id="path6"
     style="fill:#ffffff;stroke-width:9.7058" />
  <path
     d="M 201.47905,824.36269 126.61627,909.77955 74.036659,863.6508 C 62.308947,853.48688 61.136001,835.69906 71.495583,823.97155 l 34.792867,-39.67925 40.06942,-45.73761 52.57923,46.12875 c 11.72848,10.16391 12.90095,27.95173 2.54195,39.67925 z"
     fill="white"
     id="path7"
     style="fill:#ffffff;stroke-width:9.7058" />
</svg>
