<?xml version="1.0" encoding="UTF-8" standalone="no"?>
<svg
   width="2500"
   height="2500"
   viewBox="0 0 2500 2500"
   fill="none"
   version="1.1"
   id="svg28"
   sodipodi:docname="logo-uzzipay-branco-verde.svg"
   inkscape:version="1.3.2 (091e20e, 2023-11-25, custom)"
   xmlns:inkscape="http://www.inkscape.org/namespaces/inkscape"
   xmlns:sodipodi="http://sodipodi.sourceforge.net/DTD/sodipodi-0.dtd"
   xmlns="http://www.w3.org/2000/svg"
   xmlns:svg="http://www.w3.org/2000/svg">
  <sodipodi:namedview
     id="namedview28"
     pagecolor="#000000"
     bordercolor="#000000"
     borderopacity="0.25"
     inkscape:showpageshadow="2"
     inkscape:pageopacity="0.0"
     inkscape:pagecheckerboard="0"
     inkscape:deskcolor="#d1d1d1"
     showguides="true"
     inkscape:zoom="0.28153326"
     inkscape:cx="1197.0167"
     inkscape:cy="896.87451"
     inkscape:window-width="2400"
     inkscape:window-height="1261"
     inkscape:window-x="-9"
     inkscape:window-y="-9"
     inkscape:window-maximized="1"
     inkscape:current-layer="svg28">
    <sodipodi:guide
       position="1253.8483,1256.8076"
       orientation="0,-1"
       id="guide28"
       inkscape:locked="false" />
  </sodipodi:namedview>
  <g
     clip-path="url(#clip0_134_5576)"
     id="g28"
     transform="matrix(9.316279,0,0,9.316279,-3.5519782,976.79402)">
    <path
       d="m 153.617,35.9263 v 13.7315 l 7.008,-6.3727 v -7.0498 c -0.981,0.368 -2.029,0.677 -3.069,0.677 -1.35,0 -2.7,-0.3679 -3.932,-0.9787"
       fill="#ffffff"
       id="path1" />
    <path
       d="m 247.632,35.684 c 3.565,0 6.455,-2.8828 6.455,-6.4389 0,-3.5561 -2.89,-6.4389 -6.455,-6.4389 -3.565,0 -6.455,2.8828 -6.455,6.4389 0,3.5561 2.89,6.4389 6.455,6.4389 z"
       fill="#53a000"
       id="path2" />
    <path
       d="m 208.496,35.684 c 3.565,0 6.455,-2.8828 6.455,-6.4389 0,-3.5561 -2.89,-6.4389 -6.455,-6.4389 -3.565,0 -6.455,2.8828 -6.455,6.4389 0,3.5561 2.89,6.4389 6.455,6.4389 z"
       fill="#53a000"
       id="path3" />
    <path
       d="m 157.49,35.684 c 3.565,0 6.455,-2.8828 6.455,-6.4389 0,-3.5561 -2.89,-6.4389 -6.455,-6.4389 -3.565,0 -6.455,2.8828 -6.455,6.4389 0,3.5561 2.89,6.4389 6.455,6.4389 z"
       fill="#53a000"
       id="path4" />
    <path
       d="m 141.024,35.684 c 3.565,0 6.455,-2.8828 6.455,-6.4389 0,-3.5561 -2.89,-6.4389 -6.455,-6.4389 -3.565,0 -6.455,2.8828 -6.455,6.4389 0,3.5561 2.89,6.4389 6.455,6.4389 z"
       fill="#53a000"
       id="path5" />
    <path
       d="m 137.401,35.9854 v 13.8492 l 7.067,-6.1887 v -7.6605 c -1.047,0.5519 -2.272,0.8609 -3.504,0.8609 -1.232,0 -2.456,-0.309 -3.504,-0.8609 z"
       fill="#ffffff"
       id="path6" />
    <path
       d="m 144.343,22.5042 h 0.125 V 9.76562e-4 L 137.46,5.94688 V 22.4968 c 1.048,-0.5519 2.213,-0.861 3.504,-0.861 1.291,0 2.398,0.3091 3.379,0.7948 v 0.0588 z"
       fill="#ffffff"
       id="path7" />
    <path
       d="m 187.05,9.26638 v -0.1251 c -0.797,-1.89857 -2.029,-3.5543 -3.622,-4.90096 -1.786,-1.41288 -3.807,-2.5167 -6.02,-3.12748 -2.767,-0.794751 -5.651,-1.1626906 -8.543,-1.10382028 h -15.3 V 22.5637 c 1.106,-0.6108 2.456,-0.9787 3.873,-0.9787 1.416,0 2.154,0.2428 3.135,0.677 V 5.34414 h 8.292 c 4.116,0 7.252,0.91985 9.281,2.69332 1.047,0.97872 1.844,2.14874 2.397,3.42924 0.553,1.2804 0.738,2.2665 0.679,3.6794 0,1.4717 -0.244,2.8772 -0.797,4.2313 -0.494,1.2877 -1.35,2.3916 -2.338,3.3114 -1.107,0.9787 -2.457,1.7146 -3.874,2.1488 -1.718,0.5519 -3.504,0.7947 -5.282,0.7947 h -4.61 c 0.612,1.1038 0.922,2.3328 0.922,3.6794 0,1.3467 -0.059,1.1627 -0.185,1.7146 h 3.932 c 2.826,0 5.592,-0.3679 8.292,-1.1627 2.214,-0.677 4.301,-1.7808 6.02,-3.2452 1.601,-1.3467 2.885,-3.0613 3.689,-4.9672 0.863,-2.0236 1.291,-4.1651 1.232,-6.3727 0,-2.1488 -0.369,-3.9222 -1.166,-5.94589 V 9.27374 Z"
       fill="#ffffff"
       id="path8" />
    <path
       d="m 69.0658,13.3055 -1.232,1.7146 3.3197,0.677 1.7853,3.0023 1.291,-1.7146 -1.7853,-3.0023 -3.3787,-0.7359 z"
       fill="#ffffff"
       id="path9" />
    <path
       d="m 67.037,16.0654 -1.3501,1.8397 3.4378,0.7359 1.7853,2.9435 1.291,-1.7808 -1.8443,-3.0024 z"
       fill="#ffffff"
       id="path10" />
    <path
       d="M 82.8388,0.00149941 H 46.5132 L 52.1052,5.08642 h 22.9801 l -5.2231,7.10858 3.3788,0.7359 1.7853,3.0024 7.724,-10.85424 0.0885,-5.08491938 z"
       fill="#ffffff"
       id="path11" />
    <path
       d="m 60.4049,35.6845 c 3.5651,0 6.4551,-2.8828 6.4551,-6.4389 0,-3.5561 -2.89,-6.439 -6.4551,-6.439 -3.565,0 -6.4551,2.8829 -6.4551,6.439 0,3.5561 2.8901,6.4389 6.4551,6.4389 z"
       fill="#53a000"
       id="path12" />
    <path
       d="m 46.6609,44.1763 v 5.5412 h 37.2182 l -5.5329,-5.4529 -0.059,-0.0589 H 54.3406 L 59.608,36.972 c -1.1066,-0.1251 -2.1542,-0.493 -3.069,-1.0449 -0.9147,-0.5519 -1.7853,-1.2878 -2.3976,-2.1488 l -7.4731,10.3906 z"
       fill="#ffffff"
       id="path13" />
    <path
       d="m 67.5312,26.1836 2.582,-3.4954 -1.7853,-2.9435 -3.3788,-0.7359 -2.1541,2.9435 c 2.1541,0.677 3.8509,2.2371 4.7067,4.2607 l 0.0221,-0.0367 z"
       fill="#ffffff"
       id="path14" />
    <path
       d="m 112.717,13.3055 -1.232,1.7146 3.32,0.677 1.785,3.0023 1.291,-1.7146 -1.785,-3.0023 -3.379,-0.7359 z"
       fill="#ffffff"
       id="path15" />
    <path
       d="m 110.689,16.0654 -1.35,1.8397 3.437,0.7359 1.786,2.9435 1.291,-1.7808 -1.845,-3.0024 z"
       fill="#ffffff"
       id="path16" />
    <path
       d="M 126.49,0.00149941 H 90.1648 L 95.7568,5.08642 h 22.9802 l -5.223,7.10858 3.379,0.7359 1.785,3.0024 7.724,-10.85424 0.088,-5.08491938 z"
       fill="#ffffff"
       id="path17" />
    <path
       d="m 104.056,35.6845 c 3.565,0 6.455,-2.8828 6.455,-6.4389 0,-3.5561 -2.89,-6.439 -6.455,-6.439 -3.565,0 -6.4551,2.8829 -6.4551,6.439 0,3.5561 2.8901,6.4389 6.4551,6.4389 z"
       fill="#53a000"
       id="path18" />
    <path
       d="m 90.3125,44.1763 v 5.5412 h 37.2185 l -5.533,-5.4529 -0.059,-0.0589 H 97.9922 L 103.26,36.972 c -1.107,-0.1251 -2.155,-0.493 -3.069,-1.0449 -0.9152,-0.5519 -1.7857,-1.2878 -2.398,-2.1488 l -7.4732,10.3906 z"
       fill="#ffffff"
       id="path19" />
    <path
       d="m 111.183,26.1836 2.582,-3.4954 -1.785,-2.9435 -3.379,-0.7359 -2.154,2.9435 c 2.154,0.677 3.85,2.2371 4.706,4.2607 l 0.022,-0.0367 z"
       fill="#ffffff"
       id="path20" />
    <path
       d="m 248.311,36.9059 c 0.243,0 0.494,-0.0589 0.738,-0.1251 -0.244,0 -0.495,0.0588 -0.738,0.1251 z"
       fill="#ffffff"
       id="path21" />
    <path
       d="m 248.436,36.9053 h -0.797 c -1.166,0 -2.398,-0.2428 -3.438,-0.7358 v 13.4813 l 6.824,-5.3352 0.126,-8.1535 c -0.613,0.3091 -1.232,0.493 -1.904,0.6108 -0.243,0 -0.494,0.0589 -0.737,0.1251 h -0.059 z"
       fill="#ffffff"
       id="path22" />
    <path
       d="m 20.5825,44.323 c 1.9698,0 3.9321,-0.3091 5.7174,-1.045 1.6599,-0.677 3.0689,-1.6557 4.3009,-2.9435 1.232,-1.3467 2.0878,-2.8773 2.6411,-4.533 0.6123,-1.8397 0.9812,-3.7971 0.9221,-5.7619 L 34.2895,5.40233 41.1724,9.76562e-4 V 29.9733 c 0,2.7596 -0.4278,5.4529 -1.4164,8.0285 -0.9222,2.3916 -2.2722,4.5992 -4.0575,6.4389 -1.8443,1.8397 -4.0575,3.3115 -6.5141,4.2313 -3.1943,1.2289 -14.0684,1.2878 -17.2037,0 C 9.52403,47.6933 7.31085,46.2804 5.46654,44.4407 3.68125,42.601 2.27219,40.3934 1.35004,38.0018 0.427881,35.4851 0,32.7329 0,29.9733 V 9.76562e-4 L 6.82396,5.45384 7.00839,30.0322 c 0,1.9648 0.30984,3.9222 0.92215,5.7619 0.5533,1.6558 1.47545,3.2453 2.70006,4.533 1.1656,1.2878 2.6411,2.2666 4.301,2.9436 1.8443,0.7358 3.8066,1.1038 5.7763,1.0449"
       fill="#ffffff"
       id="path23" />
    <path
       d="m 20.3395,35.684 c 3.5651,0 6.4551,-2.8828 6.4551,-6.4389 0,-3.5561 -2.89,-6.4389 -6.4551,-6.4389 -3.565,0 -6.4551,2.8828 -6.4551,6.4389 0,3.5561 2.8901,6.4389 6.4551,6.4389 z"
       fill="#53a000"
       id="path24" />
    <path
       d="M 208.739,6.38105 225.818,49.717 232.885,49.6581 212.243,9.76562e-4 H 205.11 L 184.468,49.6581 l 6.883,0.0589 z"
       fill="#ffffff"
       id="path25" />
    <path
       d="m 245.98,21.6432 c -2.087,0.3679 -3.873,1.5968 -5.038,3.3114 L 225.272,9.76562e-4 h 7.378 L 245.98,21.6358 Z"
       fill="#ffffff"
       id="path26" />
    <path
       d="m 249.292,21.6432 c 2.088,0.3679 3.873,1.5968 5.039,3.3114 L 270,9.76562e-4 h -7.377 L 249.292,21.6358 Z"
       fill="#ffffff"
       id="path27" />
    <path
       d="M 136.123,69.7217 V 59.0588 h 4.783 c 1.229,0 2.174,0.2488 2.834,0.7464 0.66,0.4874 0.99,1.1577 0.99,2.0107 0,0.5789 -0.132,1.0663 -0.396,1.4623 -0.254,0.3961 -0.599,0.7008 -1.036,0.914 -0.437,0.2133 -0.909,0.3199 -1.417,0.3199 l 0.275,-0.457 c 0.609,0 1.147,0.1066 1.614,0.3199 0.467,0.2133 0.838,0.5281 1.112,0.9444 0.274,0.4062 0.412,0.914 0.412,1.5233 0,0.914 -0.346,1.6248 -1.036,2.1326 -0.681,0.4976 -1.696,0.7464 -3.047,0.7464 z m 1.524,-1.2339 h 3.503 c 0.843,0 1.488,-0.1421 1.935,-0.4265 0.447,-0.2843 0.67,-0.7312 0.67,-1.3405 0,-0.6194 -0.223,-1.0713 -0.67,-1.3557 -0.447,-0.2843 -1.092,-0.4265 -1.935,-0.4265 h -3.64 v -1.2338 h 3.259 c 0.772,0 1.371,-0.1422 1.798,-0.4266 0.426,-0.2843 0.64,-0.7108 0.64,-1.2795 0,-0.5687 -0.214,-0.9952 -0.64,-1.2795 -0.427,-0.2844 -1.026,-0.4266 -1.798,-0.4266 h -3.122 z m 10.142,4.2804 c -0.386,0 -0.761,-0.066 -1.127,-0.198 -0.366,-0.1219 -0.68,-0.3047 -0.944,-0.5484 l 0.624,-1.0967 c 0.203,0.1929 0.427,0.3402 0.67,0.4417 0.244,0.1016 0.503,0.1523 0.777,0.1523 0.356,0 0.65,-0.0914 0.884,-0.2742 0.233,-0.1827 0.452,-0.5077 0.655,-0.9748 l 0.502,-1.112 0.153,-0.1828 3.168,-7.327 h 1.432 l -3.915,8.8807 c -0.233,0.5687 -0.497,1.0155 -0.792,1.3405 -0.284,0.325 -0.599,0.5534 -0.944,0.6855 -0.346,0.1421 -0.726,0.2132 -1.143,0.2132 z m 1.919,-2.7876 -3.686,-8.3323 h 1.523 l 3.138,7.1899 z m 10.544,-0.2589 V 59.0588 h 4.158 c 1.381,0 2.468,0.33 3.26,0.9901 0.792,0.6499 1.188,1.5588 1.188,2.7267 0,0.7718 -0.177,1.4369 -0.533,1.9955 -0.355,0.5483 -0.863,0.9698 -1.523,1.2643 -0.66,0.2945 -1.457,0.4417 -2.392,0.4417 h -3.32 l 0.685,-0.7007 v 3.9453 z m 7.129,0 -2.712,-3.8691 h 1.63 l 2.742,3.8691 z m -5.606,-3.793 -0.685,-0.7464 h 3.275 c 0.974,0 1.711,-0.2081 2.208,-0.6245 0.508,-0.4265 0.762,-1.0206 0.762,-1.7822 0,-0.7617 -0.254,-1.3507 -0.762,-1.767 -0.497,-0.4164 -1.234,-0.6246 -2.208,-0.6246 h -3.275 l 0.685,-0.7616 z m 12.789,3.8844 c -0.813,0 -1.534,-0.1777 -2.163,-0.5332 -0.63,-0.3554 -1.127,-0.8428 -1.493,-1.4623 -0.366,-0.6296 -0.548,-1.3405 -0.548,-2.1326 0,-0.8022 0.182,-1.5131 0.548,-2.1326 0.366,-0.6194 0.863,-1.1018 1.493,-1.4471 0.629,-0.3554 1.35,-0.5331 2.163,-0.5331 0.802,0 1.518,0.1777 2.148,0.5331 0.639,0.3453 1.137,0.8277 1.492,1.4471 0.366,0.6093 0.549,1.3202 0.549,2.1326 0,0.8023 -0.183,1.5131 -0.549,2.1326 -0.355,0.6195 -0.853,1.1069 -1.492,1.4623 -0.63,0.3555 -1.346,0.5332 -2.148,0.5332 z m 0,-1.2796 c 0.518,0 0.98,-0.1168 1.386,-0.3503 0.416,-0.2336 0.741,-0.5636 0.975,-0.9901 0.233,-0.4367 0.35,-0.9394 0.35,-1.5081 0,-0.5788 -0.117,-1.0764 -0.35,-1.4928 -0.234,-0.4265 -0.559,-0.7565 -0.975,-0.9901 -0.406,-0.2336 -0.868,-0.3504 -1.386,-0.3504 -0.518,0 -0.98,0.1168 -1.386,0.3504 -0.407,0.2336 -0.731,0.5636 -0.975,0.9901 -0.244,0.4164 -0.366,0.914 -0.366,1.4928 0,0.5687 0.122,1.0714 0.366,1.5081 0.244,0.4265 0.568,0.7565 0.975,0.9901 0.406,0.2335 0.868,0.3503 1.386,0.3503 z m 8.105,1.1882 -3.534,-8.0734 h 1.524 l 3.138,7.3117 h -0.732 l 3.199,-7.3117 h 1.432 l -3.534,8.0734 z m 9.764,0.0914 c -0.863,0 -1.625,-0.1777 -2.285,-0.5332 -0.65,-0.3554 -1.158,-0.8428 -1.523,-1.4623 -0.356,-0.6195 -0.534,-1.3303 -0.534,-2.1326 0,-0.8022 0.173,-1.5131 0.518,-2.1326 0.356,-0.6194 0.838,-1.1018 1.447,-1.4471 0.62,-0.3554 1.316,-0.5331 2.087,-0.5331 0.782,0 1.473,0.1726 2.072,0.5179 0.599,0.3453 1.066,0.8327 1.401,1.4623 0.346,0.6195 0.518,1.3456 0.518,2.1783 0,0.0609 -0.005,0.132 -0.015,0.2133 0,0.0812 -0.005,0.1574 -0.015,0.2285 h -6.87 v -1.0511 h 6.108 l -0.594,0.3656 c 0.01,-0.5179 -0.096,-0.98 -0.32,-1.3862 -0.223,-0.4062 -0.533,-0.721 -0.929,-0.9444 -0.386,-0.2336 -0.838,-0.3504 -1.356,-0.3504 -0.507,0 -0.959,0.1168 -1.355,0.3504 -0.396,0.2234 -0.706,0.5433 -0.93,0.9596 -0.223,0.4063 -0.335,0.8734 -0.335,1.4015 v 0.2437 c 0,0.5382 0.122,1.0206 0.366,1.4471 0.254,0.4163 0.604,0.7413 1.051,0.9749 0.447,0.2335 0.96,0.3503 1.538,0.3503 0.478,0 0.909,-0.0812 1.295,-0.2437 0.396,-0.1625 0.742,-0.4062 1.036,-0.7312 l 0.807,0.9445 c -0.365,0.4265 -0.822,0.7514 -1.371,0.9749 -0.538,0.2234 -1.142,0.3351 -1.812,0.3351 z m 5.732,-0.0914 v -8.0734 h 1.401 v 2.1479 l -0.228,-0.5484 c 0.254,-0.5281 0.645,-0.9394 1.173,-1.2339 0.528,-0.2945 1.142,-0.4417 1.843,-0.4417 0.772,0 1.437,0.1929 1.995,0.5788 0.559,0.3758 0.924,0.9495 1.097,1.7213 l -0.594,-0.2437 c 0.244,-0.6195 0.67,-1.1171 1.28,-1.4928 0.609,-0.3757 1.32,-0.5636 2.132,-0.5636 0.65,0 1.224,0.1269 1.721,0.3808 0.498,0.2539 0.884,0.6398 1.158,1.1577 0.284,0.5179 0.427,1.1729 0.427,1.965 v 4.646 h -1.463 v -4.4784 c 0,-0.782 -0.182,-1.371 -0.548,-1.767 -0.366,-0.3961 -0.878,-0.5941 -1.539,-0.5941 -0.487,0 -0.914,0.1015 -1.279,0.3047 -0.366,0.2031 -0.65,0.5026 -0.853,0.8987 -0.193,0.396 -0.29,0.8886 -0.29,1.4776 v 4.1585 h -1.462 v -4.4784 c 0,-0.782 -0.183,-1.371 -0.548,-1.767 -0.356,-0.3961 -0.869,-0.5941 -1.539,-0.5941 -0.477,0 -0.899,0.1015 -1.264,0.3047 -0.366,0.2031 -0.65,0.5026 -0.853,0.8987 -0.203,0.396 -0.305,0.8886 -0.305,1.4776 v 4.1585 z m 21.107,0 v -1.7061 l -0.076,-0.3199 v -2.9094 c 0,-0.6195 -0.183,-1.0968 -0.549,-1.4319 -0.355,-0.3453 -0.893,-0.5179 -1.614,-0.5179 -0.478,0 -0.945,0.0812 -1.402,0.2437 -0.457,0.1524 -0.843,0.3605 -1.157,0.6246 l -0.61,-1.0968 c 0.417,-0.3351 0.914,-0.589 1.493,-0.7616 0.589,-0.1828 1.204,-0.2742 1.843,-0.2742 1.107,0 1.96,0.2691 2.559,0.8073 0.6,0.5382 0.899,1.3608 0.899,2.4677 v 4.8745 z m -2.651,0.0914 c -0.599,0 -1.127,-0.1016 -1.584,-0.3047 -0.447,-0.2031 -0.792,-0.4823 -1.036,-0.8378 -0.243,-0.3656 -0.365,-0.7768 -0.365,-1.2338 0,-0.4367 0.101,-0.8327 0.304,-1.1882 0.214,-0.3554 0.554,-0.6397 1.021,-0.853 0.477,-0.2133 1.117,-0.3199 1.919,-0.3199 h 2.559 v 1.0511 h -2.498 c -0.731,0 -1.223,0.1218 -1.477,0.3655 -0.254,0.2438 -0.381,0.5383 -0.381,0.8835 0,0.3961 0.157,0.716 0.472,0.9597 0.315,0.2336 0.752,0.3504 1.31,0.3504 0.549,0 1.026,-0.1219 1.432,-0.3656 0.416,-0.2438 0.716,-0.5992 0.899,-1.0663 l 0.289,1.0053 c -0.193,0.4773 -0.533,0.8581 -1.02,1.1425 -0.488,0.2742 -1.102,0.4113 -1.844,0.4113 z m 11.047,-0.0914 V 59.0588 h 4.783 c 1.229,0 2.174,0.2488 2.834,0.7464 0.66,0.4874 0.99,1.1577 0.99,2.0107 0,0.5789 -0.132,1.0663 -0.396,1.4623 -0.254,0.3961 -0.599,0.7008 -1.036,0.914 -0.437,0.2133 -0.909,0.3199 -1.417,0.3199 l 0.275,-0.457 c 0.609,0 1.147,0.1066 1.614,0.3199 0.467,0.2133 0.838,0.5281 1.112,0.9444 0.274,0.4062 0.411,0.914 0.411,1.5233 0,0.914 -0.345,1.6248 -1.035,2.1326 -0.681,0.4976 -1.696,0.7464 -3.047,0.7464 z m 1.524,-1.2339 h 3.503 c 0.843,0 1.488,-0.1421 1.935,-0.4265 0.447,-0.2843 0.67,-0.7312 0.67,-1.3405 0,-0.6194 -0.223,-1.0713 -0.67,-1.3557 -0.447,-0.2843 -1.092,-0.4265 -1.935,-0.4265 h -3.64 v -1.2338 h 3.259 c 0.772,0 1.371,-0.1422 1.798,-0.4266 0.426,-0.2843 0.64,-0.7108 0.64,-1.2795 0,-0.5687 -0.214,-0.9952 -0.64,-1.2795 -0.427,-0.2844 -1.026,-0.4266 -1.798,-0.4266 h -3.122 z m 14.803,1.2339 v -1.7061 l -0.076,-0.3199 v -2.9094 c 0,-0.6195 -0.183,-1.0968 -0.548,-1.4319 -0.356,-0.3453 -0.894,-0.5179 -1.615,-0.5179 -0.477,0 -0.944,0.0812 -1.401,0.2437 -0.457,0.1524 -0.843,0.3605 -1.158,0.6246 l -0.609,-1.0968 c 0.416,-0.3351 0.914,-0.589 1.493,-0.7616 0.589,-0.1828 1.203,-0.2742 1.843,-0.2742 1.107,0 1.96,0.2691 2.559,0.8073 0.599,0.5382 0.898,1.3608 0.898,2.4677 v 4.8745 z m -2.65,0.0914 c -0.599,0 -1.127,-0.1016 -1.584,-0.3047 -0.447,-0.2031 -0.792,-0.4823 -1.036,-0.8378 -0.244,-0.3656 -0.366,-0.7768 -0.366,-1.2338 0,-0.4367 0.102,-0.8327 0.305,-1.1882 0.213,-0.3554 0.553,-0.6397 1.02,-0.853 0.478,-0.2133 1.118,-0.3199 1.92,-0.3199 h 2.559 v 1.0511 h -2.498 c -0.731,0 -1.224,0.1218 -1.478,0.3655 -0.254,0.2438 -0.381,0.5383 -0.381,0.8835 0,0.3961 0.158,0.716 0.473,0.9597 0.314,0.2336 0.751,0.3504 1.31,0.3504 0.548,0 1.025,-0.1219 1.431,-0.3656 0.417,-0.2438 0.716,-0.5992 0.899,-1.0663 l 0.29,1.0053 c -0.193,0.4773 -0.534,0.8581 -1.021,1.1425 -0.487,0.2742 -1.102,0.4113 -1.843,0.4113 z m 6.743,-0.0914 v -8.0734 h 1.401 v 2.1783 l -0.228,-0.5788 c 0.264,-0.5281 0.67,-0.9394 1.218,-1.2339 0.549,-0.2945 1.188,-0.4417 1.92,-0.4417 0.66,0 1.238,0.1269 1.736,0.3808 0.508,0.2539 0.904,0.6398 1.188,1.1577 0.285,0.5179 0.427,1.1729 0.427,1.965 v 4.646 h -1.463 v -4.4784 c 0,-0.782 -0.193,-1.371 -0.578,-1.767 -0.376,-0.3961 -0.909,-0.5941 -1.6,-0.5941 -0.518,0 -0.97,0.1015 -1.356,0.3047 -0.385,0.2031 -0.685,0.5026 -0.898,0.8987 -0.203,0.396 -0.305,0.8886 -0.305,1.4776 v 4.1585 z m 11.556,-1.9498 0.031,-1.8736 4.646,-4.25 h 1.767 l -3.565,3.5036 -0.792,0.6702 z m -1.188,1.9498 V 58.419 h 1.462 v 11.3027 z m 6.169,0 -3.168,-3.9301 0.944,-1.1729 4.022,5.103 z"
       fill="#ffffff"
       id="path28" />
  </g>
  <defs
     id="defs28">
    <clipPath
       id="clip0_134_5576">
      <rect
         width="270"
         height="74"
         fill="#ffffff"
         id="rect28"
         x="0"
         y="0" />
    </clipPath>
  </defs>
</svg>
