<?xml version="1.0" encoding="UTF-8" standalone="no"?>
<svg
   width="1500"
   height="1500"
   viewBox="0 0 1500 1500"
   fill="none"
   version="1.1"
   id="svg19"
   sodipodi:docname="OrionPay_Nome.svg"
   inkscape:version="1.3.2 (091e20e, 2023-11-25, custom)"
   xmlns:inkscape="http://www.inkscape.org/namespaces/inkscape"
   xmlns:sodipodi="http://sodipodi.sourceforge.net/DTD/sodipodi-0.dtd"
   xmlns="http://www.w3.org/2000/svg"
   xmlns:svg="http://www.w3.org/2000/svg">
  <sodipodi:namedview
     id="namedview19"
     pagecolor="#ffffff"
     bordercolor="#000000"
     borderopacity="0.25"
     inkscape:showpageshadow="2"
     inkscape:pageopacity="0.0"
     inkscape:pagecheckerboard="0"
     inkscape:deskcolor="#d1d1d1"
     showgrid="false"
     inkscape:zoom="0.47709627"
     inkscape:cx="487.32303"
     inkscape:cy="753.51668"
     inkscape:window-width="2400"
     inkscape:window-height="1261"
     inkscape:window-x="-9"
     inkscape:window-y="-9"
     inkscape:window-maximized="1"
     inkscape:current-layer="svg19">
    <inkscape:grid
       id="grid19"
       units="px"
       originx="0"
       originy="0"
       spacingx="1"
       spacingy="1"
       empcolor="#0099e5"
       empopacity="0.30196078"
       color="#0099e5"
       opacity="0.14901961"
       empspacing="5"
       dotted="false"
       gridanglex="30"
       gridanglez="30"
       visible="false" />
  </sodipodi:namedview>
  <path
     d="m 535.82609,699.7557 c 0,-22.56836 0.63473,-37.67535 1.93584,-45.31913 1.36066,-7.6447 3.47798,-13.83288 6.29054,-18.53474 4.53713,-8.91789 11.8263,-16.86507 21.83777,-23.84247 9.85975,-7.06768 22.1393,-10.67783 36.86843,-10.85931 14.91156,0.18148 27.3121,3.82141 37.23235,10.91981 9.82997,7.00718 16.93767,14.98507 21.32308,23.93368 3.17553,4.70186 5.35335,10.86024 6.53254,18.50402 1.11962,7.6447 1.66407,22.72099 1.66407,45.22885 0,22.50786 -0.54445,37.15975 -1.66407,44.95522 -1.2099,7.79641 -3.38679,14.04508 -6.56325,18.74694 -4.3547,8.9486 -11.4624,16.86601 -21.32215,23.69077 -9.92119,7.09839 -22.35151,10.82953 -37.23234,11.16365 -14.73007,-0.3639 -27.00962,-4.09504 -36.86938,-11.16365 -10.01146,-6.82476 -17.29971,-14.71146 -21.83684,-23.69077 -1.3616,-2.94285 -2.60127,-5.73307 -3.71997,-8.37251 -1.02841,-2.76043 -1.87534,-6.21795 -2.5715,-10.37443 -1.27039,-7.79547 -1.93491,-22.78055 -1.93491,-44.95522 z m 28.37028,0 c 0,19.11083 0.69523,32.0335 2.05683,38.79776 1.2099,6.76521 3.65949,12.22464 7.34968,16.4109 2.99404,4.00476 6.956,7.2501 11.82538,9.73784 4.80889,2.94191 10.55591,4.39845 17.24013,4.39845 6.68424,0 12.64254,-1.45654 17.63291,-4.39845 4.7186,-2.48774 8.49908,-5.73308 11.31163,-9.73784 3.69019,-4.18626 6.23098,-9.64569 7.59166,-16.4109 1.27039,-6.76426 1.93583,-19.68693 1.93583,-38.79776 0,-19.10991 -0.63566,-32.12377 -1.93583,-39.07046 -1.36068,-6.58279 -3.90147,-11.95195 -7.59166,-16.13727 -2.84326,-4.00478 -6.59303,-7.3413 -11.31163,-10.01053 -4.99037,-2.57895 -10.85839,-3.94335 -17.63291,-4.12576 -6.68422,0.18241 -12.43124,1.54681 -17.24013,4.12576 -4.89917,2.66923 -8.83134,6.00575 -11.82538,10.01053 -3.69019,4.18532 -6.13978,9.55448 -7.34968,16.13727 -1.3616,6.94669 -2.05683,19.96055 -2.05683,39.07046 z"
     fill="white"
     id="path1"
     style="fill:#ffffff;stroke-width:9.30692" />
  <path
     d="m 701.69126,658.65261 h 26.76763 v 14.62117 h 0.57424 c 8.83135,-10.91981 20.38589,-16.34947 34.69156,-16.34947 10.70668,0.18148 17.78459,4.42823 24.74059,9.55449 l -16.27222,25.05702 c -5.65582,-4.61158 -11.5229,-6.94668 -17.63289,-6.94668 -6.86572,0 -12.7328,2.30532 -17.6329,6.91597 -5.47433,4.51944 -8.31759,11.86074 -8.49909,21.99225 v 83.26811 h -26.7667 V 658.68332 Z"
     fill="white"
     id="path2"
     style="fill:#ffffff;stroke-width:9.30692" />
  <path
     d="m 817.77278,599.31911 c 9.25574,0 16.72547,7.52279 16.72547,16.7748 v 1.00049 c 0,9.28273 -7.50045,16.77573 -16.72547,16.77573 -9.2548,0 -16.72547,-7.52372 -16.72547,-16.77573 v -1.00049 c 0,-9.28273 7.50138,-16.7748 16.72547,-16.7748 z m -13.39825,59.3335 h 26.76671 v 138.08215 h -26.76671 z"
     fill="white"
     id="path3"
     style="fill:#ffffff;stroke-width:9.30692" />
  <path
     d="m 851.22465,727.57223 c 0,-14.55976 1.14941,-25.75318 3.478,-33.57938 2.38908,-7.6447 6.07928,-14.07579 11.03987,-19.32303 3.68926,-4.58087 8.83134,-8.67591 15.42436,-12.31585 6.50275,-3.42774 14.85105,-5.24818 25.044,-5.42966 10.5252,0.18148 19.05406,2.00192 25.58379,5.45944 6.41248,3.64087 11.41029,7.76569 14.90969,12.37634 5.29565,5.24818 9.04633,11.67926 11.2893,19.29326 2.1406,7.79547 3.20158,18.98891 3.20158,33.51888 0,14.53089 -1.06098,25.63312 -3.20158,33.24712 -2.24297,7.64377 -5.99365,14.22655 -11.31722,19.80792 -1.72178,2.03263 -3.80652,4.03454 -6.29147,5.97597 -2.23367,2.21412 -5.08158,4.12576 -8.61822,5.73307 -6.50181,3.82235 -15.03067,5.79449 -25.55587,5.97597 -10.19295,-0.18148 -18.54125,-2.18433 -25.044,-5.97597 -6.59302,-3.45753 -11.7351,-7.37109 -15.42436,-11.70904 -4.96059,-5.58137 -8.65079,-12.19393 -11.03987,-19.80792 -2.32859,-7.614 -3.478,-18.71623 -3.478,-33.24712 z m 83.17597,0.27362 c 0,-9.88953 -0.42812,-17.07821 -1.30297,-21.62835 -0.84693,-4.36868 -2.63014,-8.1901 -5.29192,-11.46707 -1.96655,-3.12433 -4.90009,-5.55065 -8.77085,-7.34037 -3.69019,-1.88092 -7.98533,-2.79114 -12.88542,-2.79114 -4.5362,0 -8.77085,0.94093 -12.61181,2.79114 -3.69021,1.78972 -6.68424,4.21604 -9.01283,7.34037 -2.32953,3.30676 -3.99267,7.12911 -5.02108,11.46707 -1.02842,4.55014 -1.54217,11.64854 -1.54217,21.35473 0,9.70711 0.51375,16.6538 1.54217,21.08296 1.02841,4.55016 2.69155,8.554 5.02108,12.01245 2.32859,2.66922 5.32262,5.03505 9.01283,7.06767 3.87167,1.97214 8.07561,2.94285 12.61181,2.94285 4.90009,0 9.19523,-0.97071 12.88542,-2.94285 3.87076,-2.03262 6.77452,-4.39845 8.77085,-7.06767 2.66178,-3.45845 4.41706,-7.46229 5.29192,-12.01245 0.84692,-4.45894 1.30297,-11.40563 1.30297,-20.84006 z"
     fill="white"
     id="path4"
     style="fill:#ffffff;stroke-width:9.30692" />
  <path
     d="m 982.82453,658.65261 h 26.76667 v 14.62117 h 0.5119 c 8.8322,-10.91981 20.3543,-16.34947 34.659,-16.34947 11.038,0 21.1453,4.03362 30.3126,12.10272 9.065,8.16031 13.8208,20.14204 14.2397,35.91635 v 91.79138 h -26.7668 v -82.32717 c 0,-9.67642 -2.4757,-17.04843 -7.4362,-22.11419 -4.8769,-5.15603 -11.1963,-7.73497 -18.9024,-7.73497 -7.7154,0 -14.0721,2.57894 -19.0326,7.73497 -5.0444,5.06576 -7.5852,12.43777 -7.5852,22.11419 v 82.32717 h -26.76667 z"
     fill="white"
     id="path5"
     style="fill:#ffffff;stroke-width:9.30692" />
  <path
     d="m 1127.3052,602.77663 h 67.9033 c 7.3804,0 14.4816,0.69803 21.35,2.12384 6.8686,1.85022 13.793,5.67257 20.8382,11.43636 5.9007,4.33701 10.703,10.5559 14.37,18.625 3.8344,7.79548 5.7703,17.01771 5.7703,27.66483 0,14.37826 -4.8955,27.45262 -14.6678,39.25288 -10.0421,12.40612 -24.7099,18.80742 -44.0031,19.14062 h -43.2213 v 75.7146 h -28.3675 V 602.77663 Z m 28.3675,90.60941 h 42.1045 c 10.554,-0.18241 18.5114,-3.57944 23.7978,-10.16223 5.0536,-6.43108 7.5944,-13.55926 7.5944,-21.38545 0,-6.49158 -1.0237,-11.98265 -3.0806,-16.44161 -2.1498,-4.00384 -5.1467,-7.15888 -9.0183,-9.49492 -5.8355,-3.82142 -12.6109,-5.67257 -20.3543,-5.49015 h -41.0714 v 62.94365 z"
     fill="white"
     id="path6"
     style="fill:#ffffff;stroke-width:9.30692" />
  <path
     d="m 1345.4316,784.51011 h -0.512 c -2.4849,4.70186 -6.3566,8.16032 -11.5498,10.37443 -5.1468,2.30532 -12.2573,3.45845 -21.3315,3.45845 -14.9097,-0.18242 -26.3665,-4.24675 -34.417,-12.22464 -8.4693,-7.79641 -12.704,-17.77622 -12.704,-29.94037 0,-12.16414 3.6949,-21.23374 11.038,-28.87845 7.3525,-7.79548 18.1486,-11.80024 32.3695,-11.98173 h 37.1068 v -14.56068 c 0.186,-12.19486 -8.9533,-18.14012 -27.3718,-17.77622 -6.6823,0 -11.95,0.7278 -15.7845,2.15362 -4.0206,1.69944 -7.2035,4.55015 -9.5024,8.55493 l -21.0801,-16.65382 c 10.1911,-13.77144 25.1938,-20.47615 45.0641,-20.11132 16.7897,-0.18241 30.1544,3.09362 40.1686,9.85789 10.0144,6.91691 15.0959,18.80743 15.2727,35.64365 v 94.33962 h -26.7666 v -12.22464 z m 0,-46.32055 h -32.1834 c -15.6356,0.3639 -23.3418,5.91548 -23.1649,16.65381 0,4.70186 2.0288,8.7057 6.0495,11.98173 3.8716,3.63994 10.2562,5.46037 19.1722,5.46037 11.2521,0.18241 19.1815,-1.21362 23.8072,-4.12576 4.2066,-2.94191 6.2914,-9.5852 6.2914,-19.95963 v -9.97981 z"
     fill="white"
     id="path7"
     style="fill:#ffffff;stroke-width:9.30692" />
  <path
     d="M 0.78600486,935.78763 V 666.17632 L 231.31569,781.32529 Z"
     fill="url(#paint0_linear_12_93)"
     id="path8"
     style="fill:url(#paint0_linear_12_93);stroke-width:9.30692" />
  <path
     d="m 337.23497,468.06229 c -31.60631,-16.28957 -67.41655,-25.54155 -105.40461,-25.54155 -37.98807,0 -74.79694,9.49465 -106.73644,26.20886 C 51.235201,507.40591 0.78600486,584.87942 0.78600486,674.24449 c 0,12.52805 1.02834974,24.8439 2.93380254,36.82656 21.9581196,-48.3839 58.8272136,-88.51627 104.6793526,-114.54308 36.29421,-20.59716 78.21444,-32.36669 122.88674,-32.36669 44.6723,0 86.62232,11.76953 122.88674,32.36669 1.36068,-10.58663 2.05683,-21.38544 2.05683,-32.36669 0,-34.06528 -6.77544,-66.52299 -19.05499,-96.12933 z"
     fill="url(#paint1_linear_12_93)"
     id="path9"
     style="fill:url(#paint1_linear_12_93);stroke-width:9.30692" />
  <path
     d="m 356.28997,814.87488 c -45.51923,0 -88.19613,-12.22464 -124.97428,-33.54959 C 165.44129,743.10362 118.56139,675.60982 108.42894,596.55868 62.577175,622.58549 25.708081,662.71786 3.7499804,711.10084 c 5.5953865,35.06662 19.0242796,67.46401 38.4116226,95.40154 41.738568,60.12271 111.121117,99.49658 189.698537,99.49658 78.57741,0 148.23228,-39.52557 189.94126,-99.86049 -20.86985,5.67257 -42.82767,8.7057 -65.51143,8.7057 z"
     fill="url(#paint2_linear_12_93)"
     id="path10"
     style="fill:url(#paint2_linear_12_93);stroke-width:9.30692" />
  <path
     d="m 337.23497,468.0622 c 12.27956,29.60634 19.055,62.06414 19.055,96.12979 0,10.98125 -0.69616,21.78007 -2.05683,32.36669 -10.16224,79.05114 -57.01235,146.54494 -122.88674,184.76661 36.77817,21.32495 79.45413,33.54959 124.97335,33.54959 22.68469,0 44.6118,-3.03313 65.51143,-8.7057 18.96378,-27.39213 32.15076,-59.0915 37.86707,-93.33912 2.08754,-12.52805 3.23695,-25.39022 3.23695,-38.52414 0,-89.88068 -51.05406,-167.7797 -125.66951,-206.18304 z"
     fill="url(#paint3_linear_12_93)"
     id="path11"
     style="fill:url(#paint3_linear_12_93);stroke-width:9.30692" />
  <path
     d="m 1472.4059,658.65261 v 14.62117 c -9.6792,-10.91981 -21.1453,-16.34947 -34.4263,-16.34947 -8.6462,0.18148 -15.8404,1.91071 -21.5642,5.15604 -5.9843,3.42774 -10.5819,7.31059 -13.7276,11.64854 -3.5088,4.42916 -6.0217,9.88954 -7.5573,16.38112 -1.638,6.58185 -2.4571,19.14061 -2.4571,37.67534 0,18.53381 0.8191,30.54626 2.4571,37.00711 1.5356,6.5828 4.0485,12.13438 7.5573,16.65382 3.1735,4.00476 7.7433,7.73591 13.7276,11.19343 5.7517,3.63994 12.918,5.55158 21.5642,5.73307 14.1278,-0.36391 25.594,-5.70235 34.4263,-16.01629 v 14.16607 c -0.1861,9.43443 -2.9969,16.83529 -8.4693,22.17467 -5.5656,5.24725 -12.918,7.88669 -22.0853,7.88669 l -15.8777,0.24291 v 27.42192 h 15.3378 c 15.7288,0 29.2424,-5.00527 40.5596,-15.04558 11.187,-9.76761 16.9665,-24.9956 17.3295,-45.77423 V 658.65261 h -26.7667 z m -0.7912,91.06451 c -0.7538,4.18532 -2.2708,7.64377 -4.5045,10.40421 -1.8149,2.48774 -4.4487,4.76235 -7.9853,6.79498 -3.5087,2.48774 -7.8923,3.73114 -13.0949,3.73114 -5.2025,0 -9.5861,-1.2434 -13.0948,-3.73114 -3.6949,-2.03263 -6.4125,-4.30724 -8.2273,-6.79498 -2.243,-2.76044 -3.6298,-6.21889 -4.2347,-10.40421 -0.698,-4.00477 -1.0331,-11.31536 -1.0331,-21.90199 0,-10.58662 0.3351,-18.23039 1.0331,-22.41664 0.6049,-4.18626 2.0289,-7.55351 4.2347,-10.13152 1.7869,-2.48774 4.5324,-4.94477 8.2273,-7.3413 3.5087,-2.03263 7.8923,-3.15505 13.0948,-3.33653 5.2306,0.18148 9.5862,1.3039 13.0949,3.33653 3.5087,2.39653 6.1704,4.85356 7.9853,7.3413 2.2337,2.57801 3.7228,5.97504 4.5045,10.13152 0.512,4.18625 0.7912,11.64854 0.7912,22.41664 0,10.76904 -0.2792,17.89722 -0.7912,21.90199 z"
     fill="white"
     id="path12"
     style="fill:#ffffff;stroke-width:9.30692" />
  <defs
     id="defs19">
    <linearGradient
       id="paint0_linear_12_93"
       x1="0.50046402"
       y1="43.026402"
       x2="25.0222"
       y2="16.749901"
       gradientUnits="userSpaceOnUse"
       gradientTransform="matrix(9.306922,0,0,9.306922,0.78600486,442.52074)">
      <stop
         stop-color="#E06A2F"
         id="stop12" />
      <stop
         offset="1"
         stop-color="#FFA43F"
         id="stop13" />
    </linearGradient>
    <linearGradient
       id="paint1_linear_12_93"
       x1="0"
       y1="14.4291"
       x2="38.1978"
       y2="14.4291"
       gradientUnits="userSpaceOnUse"
       gradientTransform="matrix(9.306922,0,0,9.306922,0.78600486,442.52074)">
      <stop
         stop-color="#E06A2F"
         id="stop14" />
      <stop
         offset="1"
         stop-color="#FFA43F"
         id="stop15" />
    </linearGradient>
    <linearGradient
       id="paint2_linear_12_93"
       x1="5.8138299"
       y1="31.1005"
       x2="32.785599"
       y2="36.046101"
       gradientUnits="userSpaceOnUse"
       gradientTransform="matrix(9.306922,0,0,9.306922,0.78600486,442.52074)">
      <stop
         stop-color="#E06A2F"
         id="stop16" />
      <stop
         offset="1"
         stop-color="#FFA43F"
         id="stop17" />
    </linearGradient>
    <linearGradient
       id="paint3_linear_12_93"
       x1="24.769699"
       y1="21.374701"
       x2="49.653198"
       y2="21.374701"
       gradientUnits="userSpaceOnUse"
       gradientTransform="matrix(9.306922,0,0,9.306922,0.78600486,442.52074)">
      <stop
         stop-color="#E06A2F"
         id="stop18" />
      <stop
         offset="1"
         stop-color="#FFA43F"
         id="stop19" />
    </linearGradient>
  </defs>
</svg>
